<?xml version="1.0" encoding="UTF-8" standalone="no"?>
<svg
   xmlns:dc="http://purl.org/dc/elements/1.1/"
   xmlns:cc="http://creativecommons.org/ns#"
   xmlns:rdf="http://www.w3.org/1999/02/22-rdf-syntax-ns#"
   xmlns:svg="http://www.w3.org/2000/svg"
   xmlns="http://www.w3.org/2000/svg"
   xmlns:sodipodi="http://sodipodi.sourceforge.net/DTD/sodipodi-0.dtd"
   xmlns:inkscape="http://www.inkscape.org/namespaces/inkscape"
   version="1.1"
   id="svg2"
   xml:space="preserve"
   width="100"
   height="100"
   viewBox="0 0 100 100"
   sodipodi:docname="memos.svg"
   inkscape:version="1.0.2 (e86c870879, 2021-01-15)"><metadata
     id="metadata8"><rdf:RDF><cc:Work
         rdf:about=""><dc:format>image/svg+xml</dc:format><dc:type
           rdf:resource="http://purl.org/dc/dcmitype/StillImage" /><dc:title></dc:title></cc:Work></rdf:RDF></metadata><defs
     id="defs6"><clipPath
       clipPathUnits="userSpaceOnUse"
       id="clipPath20"><path
         d="M 0,500 H 500 V 0 H 0 Z"
         id="path18" /></clipPath><clipPath
       clipPathUnits="userSpaceOnUse"
       id="clipPath32"><path
         d="m 390.651,213.823 h 9.233 v -29.928 h -9.233 z"
         id="path30" /></clipPath><clipPath
       clipPathUnits="userSpaceOnUse"
       id="clipPath48"><path
         d="m 388.172,178.603 h 7.142 v -13.817 h -7.142 z"
         id="path46" /></clipPath><clipPath
       clipPathUnits="userSpaceOnUse"
       id="clipPath132"><path
         d="m 376.378,188.25 h 21.84 v -6.146 h -21.84 z"
         id="path130" /></clipPath><clipPath
       clipPathUnits="userSpaceOnUse"
       id="clipPath148"><path
         d="m 403.607,188.25 h 13.881 v -6.146 h -13.881 z"
         id="path146" /></clipPath><clipPath
       clipPathUnits="userSpaceOnUse"
       id="clipPath322"><path
         d="m 278.743,219.756 h 30.126 v -6.147 h -30.126 z"
         id="path320" /></clipPath><clipPath
       clipPathUnits="userSpaceOnUse"
       id="clipPath338"><path
         d="m 314.258,219.756 h 13.881 v -6.147 h -13.881 z"
         id="path336" /></clipPath><clipPath
       clipPathUnits="userSpaceOnUse"
       id="clipPath398"><path
         d="M 0,500 H 500 V 0 H 0 Z"
         id="path396" /></clipPath><clipPath
       clipPathUnits="userSpaceOnUse"
       id="clipPath546"><path
         d="m 221.568,151.037 h 7.618 v -4.094 h -7.618 z"
         id="path544" /></clipPath><clipPath
       clipPathUnits="userSpaceOnUse"
       id="clipPath562"><path
         d="m 209.613,167.727 h 8.124 v -16.173 h -8.124 z"
         id="path560" /></clipPath><clipPath
       clipPathUnits="userSpaceOnUse"
       id="clipPath578"><path
         d="m 294.943,190.127 h 7.566 v -7.52 h -7.566 z"
         id="path576" /></clipPath><clipPath
       clipPathUnits="userSpaceOnUse"
       id="clipPath594"><path
         d="m 264.912,199.81 h 12.729 v -3.672 h -12.729 z"
         id="path592" /></clipPath><clipPath
       clipPathUnits="userSpaceOnUse"
       id="clipPath610"><path
         d="m 235.321,150.526 h 15.349 v -3.671 h -15.349 z"
         id="path608" /></clipPath><clipPath
       clipPathUnits="userSpaceOnUse"
       id="clipPath626"><path
         d="m 252.634,150.526 h 6.599 v -3.671 h -6.599 z"
         id="path624" /></clipPath><clipPath
       clipPathUnits="userSpaceOnUse"
       id="clipPath546-3"><path
         d="m 221.568,151.037 h 7.618 v -4.094 h -7.618 z"
         id="path544-6" /></clipPath><clipPath
       clipPathUnits="userSpaceOnUse"
       id="clipPath562-7"><path
         d="m 209.613,167.727 h 8.124 v -16.173 h -8.124 z"
         id="path560-5" /></clipPath><clipPath
       clipPathUnits="userSpaceOnUse"
       id="clipPath578-3"><path
         d="m 294.943,190.127 h 7.566 v -7.52 h -7.566 z"
         id="path576-5" /></clipPath><clipPath
       clipPathUnits="userSpaceOnUse"
       id="clipPath594-6"><path
         d="m 264.912,199.81 h 12.729 v -3.672 h -12.729 z"
         id="path592-2" /></clipPath><clipPath
       clipPathUnits="userSpaceOnUse"
       id="clipPath610-9"><path
         d="m 235.321,150.526 h 15.349 v -3.671 h -15.349 z"
         id="path608-1" /></clipPath><clipPath
       clipPathUnits="userSpaceOnUse"
       id="clipPath626-2"><path
         d="m 252.634,150.526 h 6.599 v -3.671 h -6.599 z"
         id="path624-7" /></clipPath></defs><sodipodi:namedview
     pagecolor="#ffffff"
     bordercolor="#666666"
     borderopacity="1"
     objecttolerance="10"
     gridtolerance="10"
     guidetolerance="10"
     inkscape:pageopacity="0"
     inkscape:pageshadow="2"
     inkscape:window-width="1366"
     inkscape:window-height="718"
     id="namedview4"
     showgrid="false"
     inkscape:zoom="1.638"
     inkscape:cx="120.09413"
     inkscape:cy="126.71936"
     inkscape:window-x="1280"
     inkscape:window-y="163"
     inkscape:window-maximized="1"
     inkscape:current-layer="g394"
     inkscape:document-rotation="0" /><g
     id="g10"
     inkscape:groupmode="layer"
     inkscape:label="3283094"
     transform="matrix(1.3333333,0,0,-1.3333333,0,666.66667)"><g
       id="g14"
       transform="matrix(1.0787719,0,0,1.0787719,70.711928,-230.64539)"><g
         id="g16"
         clip-path="url(#clipPath20)" /></g><g
       id="g392"
       transform="matrix(1.0787719,0,0,1.0787719,-13.786795,-17.295919)"><g
         id="g394"
         clip-path="url(#clipPath398)"><g
           id="g400"
           transform="matrix(0.53064762,0,0,0.53064762,48.706104,454.28948)"><path
             d="m 0,0 h -29.91 c -4.816,0 -8.72,3.904 -8.72,8.72 0,4.816 3.904,8.719 8.72,8.719 H 0 c 4.816,0 8.72,-3.903 8.72,-8.719 C 8.72,3.904 4.816,0 0,0"
             style="fill:#e17676;fill-opacity:1;fill-rule:nonzero;stroke:none"
             id="path402" /></g><g
           id="g404"
           transform="matrix(0.53064762,0,0,0.53064762,50.397543,449.79038)"><path
             d="m 0,0 h -16.377 c -6.146,0 -11.129,4.982 -11.129,11.129 0,6.146 4.983,11.129 11.129,11.129 H 0 c 6.146,0 11.129,-4.983 11.129,-11.129 C 11.129,4.982 6.146,0 0,0"
             style="fill:#e17676;fill-opacity:1;fill-rule:nonzero;stroke:none"
             id="path406" /></g><g
           id="g408"
           transform="matrix(0.53064762,0,0,0.53064762,48.363306,428.57016)"><path
             d="m 0,0 h -16.377 c -6.146,0 -11.129,4.982 -11.129,11.128 0,6.146 4.983,11.129 11.129,11.129 H 0 c 6.146,0 11.128,-4.983 11.128,-11.129 C 11.128,4.982 6.146,0 0,0"
             style="fill:#e17676;fill-opacity:1;fill-rule:nonzero;stroke:none"
             id="path410" /></g><g
           id="g412"
           transform="matrix(0.53064762,0,0,0.53064762,35.717177,445.09951)"><path
             d="m 0,0 h -20.066 c -7.531,0 -13.636,6.104 -13.636,13.636 0,7.53 6.105,13.635 13.636,13.635 H 0 c 7.531,0 13.636,-6.105 13.636,-13.635 C 13.636,6.104 7.531,0 0,0"
             style="fill:#e17676;fill-opacity:1;fill-rule:nonzero;stroke:none"
             id="path414" /></g><g
           id="g416"
           transform="matrix(0.53064762,0,0,0.53064762,60.665363,436.21116)"><path
             d="m 0,0 h -13.349 c -5.009,0 -9.069,4.062 -9.069,9.07 0,5.01 4.06,9.071 9.069,9.071 H 0 C 5.009,18.141 9.07,14.08 9.07,9.07 9.07,4.062 5.009,0 0,0"
             style="fill:#e17676;fill-opacity:1;fill-rule:nonzero;stroke:none"
             id="path418" /></g><g
           id="g420"
           transform="matrix(0.53064762,0,0,0.53064762,57.148814,441.02589)"><path
             d="m 0,0 h -23.101 c -8.669,0 -15.697,7.028 -15.697,15.697 0,8.67 7.028,15.698 15.697,15.698 H 0 c 8.669,0 15.697,-7.028 15.697,-15.698 C 15.697,7.028 8.669,0 0,0"
             style="fill:#e17676;fill-opacity:1;fill-rule:nonzero;stroke:none"
             id="path422" /></g><g
           id="g424"
           transform="matrix(0.53064762,0,0,0.53064762,44.810726,433.54758)"><path
             d="m 0,0 h -39.075 c -9.522,0 -17.241,7.72 -17.241,17.242 0,9.522 7.719,17.241 17.241,17.241 H 0 c 9.522,0 17.241,-7.719 17.241,-17.241 C 17.241,7.72 9.522,0 0,0"
             style="fill:#e17676;fill-opacity:1;fill-rule:nonzero;stroke:none"
             id="path426" /></g><g
           id="g428"
           transform="matrix(0.53064762,0,0,0.53064762,28.373332,456.90589)"><path
             d="M 0,0 C 0,-2.3 -1.864,-4.164 -4.164,-4.164 -6.463,-4.164 -8.328,-2.3 -8.328,0"
             style="fill:none;stroke:#c46767;stroke-width:1;stroke-linecap:round;stroke-linejoin:round;stroke-miterlimit:10;stroke-dasharray:none;stroke-opacity:1"
             id="path430" /></g><g
           id="g432"
           transform="matrix(0.53064762,0,0,0.53064762,29.933383,445.83743)"><path
             d="m 0,0 h -4.56 c -3.742,0 -6.775,-3.033 -6.775,-6.775 v -3.508"
             style="fill:none;stroke:#c46767;stroke-width:1;stroke-linecap:round;stroke-linejoin:round;stroke-miterlimit:10;stroke-dasharray:none;stroke-opacity:1"
             id="path434" /></g><g
           id="g436"
           transform="matrix(0.53064762,0,0,0.53064762,18.328066,449.81315)"><path
             d="m 0,0 h 7.385 c 4.077,0 7.381,3.305 7.381,7.381 v 1.821"
             style="fill:none;stroke:#c46767;stroke-width:1;stroke-linecap:round;stroke-linejoin:round;stroke-miterlimit:10;stroke-dasharray:none;stroke-opacity:1"
             id="path438" /></g><g
           id="g440"
           transform="matrix(0.53064762,0,0,0.53064762,33.767153,452.59438)"><path
             d="M 0,0 H -7.225"
             style="fill:none;stroke:#c46767;stroke-width:1;stroke-linecap:round;stroke-linejoin:round;stroke-miterlimit:10;stroke-dasharray:none;stroke-opacity:1"
             id="path442" /></g><g
           id="g444"
           transform="matrix(0.53064762,0,0,0.53064762,77.559538,442.34264)"><path
             d="m 0,0 c -0.023,0.799 -0.07,1.583 -0.118,2.352 -0.164,2.335 -0.423,4.46 -0.674,6.217 -0.047,0.345 -0.102,0.666 -0.149,0.98 -0.071,0.463 -0.149,0.925 -0.243,1.372 -2.218,11.423 -9.166,17.444 -18.111,20.603 -0.768,0.275 -1.552,0.526 -2.351,0.753 -1.773,0.518 -3.607,0.942 -5.489,1.279 -0.776,0.14 -1.56,0.266 -2.352,0.376 -5.238,0.76 -10.773,0.988 -16.198,1.043 -0.792,0.007 -1.576,0.015 -2.352,0.015 h -1.756 c -4.704,-0.008 -8.907,-0.611 -12.623,-1.693 -0.807,-0.235 -1.591,-0.486 -2.352,-0.769 -2.626,-0.948 -4.978,-2.148 -7.08,-3.528 -0.823,-0.541 -1.607,-1.113 -2.352,-1.709 -5.613,-4.484 -9.063,-10.419 -10.599,-16.37 -0.204,-0.784 -0.377,-1.568 -0.51,-2.352 -0.368,-2.117 -0.502,-4.211 -0.408,-6.217 0.04,-0.8 0.11,-1.584 0.228,-2.352 0.541,-3.85 1.975,-7.237 4.21,-9.651 1.67,-1.804 4.139,-3.137 7.079,-4.117 0.753,-0.258 1.537,-0.486 2.352,-0.69 2.564,-0.658 5.379,-1.098 8.256,-1.388 0.784,-0.078 1.568,-0.14 2.352,-0.203 5.881,-0.416 11.831,-0.266 16.34,-0.04 0.838,0.048 1.622,0.087 2.351,0.134 l 0.02,10e-4 c 1.044,0.064 2.022,-0.476 2.552,-1.377 2.319,-3.937 5.571,-7.193 10.52,-8.916 3.441,-1.198 6.033,-4.081 7.01,-7.592 0.383,-1.379 0.701,-2.948 0.912,-4.728 0.168,-1.42 1.355,-2.5 2.785,-2.5 1.548,0 2.803,1.254 2.803,2.802 v 9.578 c 0,0.79 0.576,1.462 1.356,1.583 0.165,0.016 0.329,0.047 0.502,0.071 1.458,0.22 2.768,0.611 3.951,1.144 0.847,0.376 1.631,0.824 2.353,1.341 C -0.87,-19.608 0.337,-8.828 0,0"
             style="fill:#f68d8c;fill-opacity:1;fill-rule:nonzero;stroke:none"
             id="path446" /></g><g
           id="g448"
           transform="matrix(0.53064762,0,0,0.53064762,54.097059,454.28948)"><path
             d="m 0,0 h -12.833 c -4.815,0 -8.719,3.904 -8.719,8.72 0,4.816 3.904,8.719 8.719,8.719 H 0 c 4.815,0 8.72,-3.903 8.72,-8.719 C 8.72,3.904 4.815,0 0,0"
             style="fill:#f68d8c;fill-opacity:1;fill-rule:nonzero;stroke:none"
             id="path450" /></g><g
           id="g452"
           transform="matrix(0.53064762,0,0,0.53064762,64.850952,449.79038)"><path
             d="m 0,0 h -16.378 c -6.146,0 -11.128,4.982 -11.128,11.129 0,6.146 4.982,11.129 11.128,11.129 H 0 c 6.146,0 11.128,-4.983 11.128,-11.129 C 11.128,4.982 6.146,0 0,0"
             style="fill:#f68d8c;fill-opacity:1;fill-rule:nonzero;stroke:none"
             id="path454" /></g><g
           id="g456"
           transform="matrix(0.53064762,0,0,0.53064762,50.17032,445.09951)"><path
             d="m 0,0 h -20.066 c -7.531,0 -13.636,6.104 -13.636,13.636 0,7.53 6.105,13.635 13.636,13.635 H 0 c 7.531,0 13.635,-6.105 13.635,-13.635 C 13.635,6.104 7.531,0 0,0"
             style="fill:#f68d8c;fill-opacity:1;fill-rule:nonzero;stroke:none"
             id="path458" /></g><g
           id="g460"
           transform="matrix(0.53064762,0,0,0.53064762,36.355864,455.39842)"><path
             d="m 0,0 c 0,-0.69 -0.807,-1.251 -1.802,-1.251 -0.995,0 -1.802,0.561 -1.802,1.251 0,0.69 0.807,1.25 1.802,1.25 C -0.807,1.25 0,0.69 0,0"
             style="fill:#ffa8aa;fill-opacity:1;fill-rule:nonzero;stroke:none"
             id="path462" /></g><g
           id="g464"
           transform="matrix(0.53064762,0,0,0.53064762,75.118241,436.21116)"><path
             d="m 0,0 h -13.348 c -5.009,0 -9.07,4.062 -9.07,9.07 0,5.01 4.061,9.071 9.07,9.071 H 0 C 5.01,18.141 9.07,14.08 9.07,9.07 9.07,4.062 5.01,0 0,0"
             style="fill:#f68d8c;fill-opacity:1;fill-rule:nonzero;stroke:none"
             id="path466" /></g><g
           id="g468"
           transform="matrix(0.53064762,0,0,0.53064762,71.601692,441.02589)"><path
             d="m 0,0 h -23.1 c -8.67,0 -15.697,7.028 -15.697,15.697 0,8.67 7.027,15.698 15.697,15.698 H 0 c 8.67,0 15.697,-7.028 15.697,-15.698 C 15.697,7.028 8.67,0 0,0"
             style="fill:#f68d8c;fill-opacity:1;fill-rule:nonzero;stroke:none"
             id="path470" /></g><g
           id="g472"
           transform="matrix(0.53064762,0,0,0.53064762,59.263604,433.54758)"><path
             d="m 0,0 h -39.074 c -9.522,0 -17.241,7.72 -17.241,17.242 0,9.522 7.719,17.241 17.241,17.241 H 0 c 9.522,0 17.242,-7.719 17.242,-17.241 C 17.242,7.72 9.522,0 0,0"
             style="fill:#f68d8c;fill-opacity:1;fill-rule:nonzero;stroke:none"
             id="path474" /></g><g
           id="g476"
           transform="matrix(0.53064762,0,0,0.53064762,70.410813,457.68531)"><path
             d="m 0,0 h -12.034 c -6.223,0 -11.267,-5.044 -11.267,-11.266"
             style="fill:none;stroke:#e17676;stroke-width:1;stroke-linecap:round;stroke-linejoin:round;stroke-miterlimit:10;stroke-dasharray:none;stroke-opacity:1"
             id="path478" /></g><g
           id="g480"
           transform="matrix(0.53064762,0,0,0.53064762,52.801006,446.46189)"><path
             d="M 0,0 C 0,5.459 4.426,9.885 9.885,9.885 15.344,9.885 19.77,5.459 19.77,0"
             style="fill:none;stroke:#e17676;stroke-width:1;stroke-linecap:round;stroke-linejoin:round;stroke-miterlimit:10;stroke-dasharray:none;stroke-opacity:1"
             id="path482" /></g><g
           id="g484"
           transform="matrix(0.53064762,0,0,0.53064762,56.107205,443.66565)"><path
             d="M 0,0 C 3.056,0 5.532,-2.477 5.532,-5.531 5.532,-8.587 3.056,-11.063 0,-11.063"
             style="fill:none;stroke:#e17676;stroke-width:1;stroke-linecap:round;stroke-linejoin:round;stroke-miterlimit:10;stroke-dasharray:none;stroke-opacity:1"
             id="path486" /></g><g
           id="g488"
           transform="matrix(0.53064762,0,0,0.53064762,50.929252,449.81315)"><path
             d="m 0,0 c -2.116,0 -3.831,1.715 -3.831,3.831 0,2.115 1.715,3.83 3.831,3.83"
             style="fill:none;stroke:#e17676;stroke-width:1;stroke-linecap:round;stroke-linejoin:round;stroke-miterlimit:10;stroke-dasharray:none;stroke-opacity:1"
             id="path490" /></g><g
           id="g492"
           transform="matrix(0.53064762,0,0,0.53064762,78.394884,444.54297)"><path
             d="m 0,0 h -16.716 c -1.984,0 -3.593,-1.608 -3.593,-3.593 0,-1.983 -1.608,-3.592 -3.592,-3.592 h -11.87"
             style="fill:none;stroke:#e17676;stroke-width:1;stroke-linecap:round;stroke-linejoin:round;stroke-miterlimit:10;stroke-dasharray:none;stroke-opacity:1"
             id="path494" /></g><g
           id="g496"
           transform="matrix(0.53064762,0,0,0.53064762,68.413136,450.98848)"><path
             d="m 0,0 h 1.507 c 5.246,0 9.499,-4.253 9.499,-9.499 v -2.647"
             style="fill:none;stroke:#e17676;stroke-width:1;stroke-linecap:round;stroke-linejoin:round;stroke-miterlimit:10;stroke-dasharray:none;stroke-opacity:1"
             id="path498" /></g><g
           id="g500"
           transform="matrix(0.53064762,0,0,0.53064762,32.752236,449.79038)"><path
             d="m 0,0 h 2.799 c 4.54,0 8.221,-3.681 8.221,-8.222 v -3.827"
             style="fill:none;stroke:#e17676;stroke-width:1;stroke-linecap:round;stroke-linejoin:round;stroke-miterlimit:10;stroke-dasharray:none;stroke-opacity:1"
             id="path502" /></g><g
           id="g504"
           transform="matrix(0.53064762,0,0,0.53064762,42.660382,459.57054)"><path
             d="m 0,0 v -6.086 c 0,-4.773 3.87,-8.643 8.643,-8.643 h 3.109"
             style="fill:none;stroke:#e17676;stroke-width:1;stroke-linecap:round;stroke-linejoin:round;stroke-miterlimit:10;stroke-dasharray:none;stroke-opacity:1"
             id="path506" /></g><g
           id="g508"
           transform="matrix(0.53064762,0,0,0.53064762,36.560801,443.39667)"><path
             d="m 0,0 h 10.967 c 3.889,0 7.042,-3.152 7.042,-7.042 v -2.185"
             style="fill:none;stroke:#e17676;stroke-width:1;stroke-linecap:round;stroke-linejoin:round;stroke-miterlimit:10;stroke-dasharray:none;stroke-opacity:1"
             id="path510" /></g><g
           id="g512"
           transform="matrix(0.53064762,0,0,0.53064762,40.770215,438.75971)"><path
             d="M 0,0 V -9.822"
             style="fill:none;stroke:#e17676;stroke-width:1;stroke-linecap:round;stroke-linejoin:round;stroke-miterlimit:10;stroke-dasharray:none;stroke-opacity:1"
             id="path514" /></g><g
           id="g516"
           transform="matrix(0.53064762,0,0,0.53064762,58.046351,461.31849)"><path
             d="m 0,0 h -10.504 c -3.854,0 -6.979,-3.125 -6.979,-6.979 v -2.056"
             style="fill:none;stroke:#e17676;stroke-width:1;stroke-linecap:round;stroke-linejoin:round;stroke-miterlimit:10;stroke-dasharray:none;stroke-opacity:1"
             id="path518" /></g><g
           id="g520"
           transform="matrix(0.53064762,0,0,0.53064762,69.863609,439.0323)"><path
             d="m 0,0 v -1.788 c 0,-4.721 -3.827,-8.548 -8.548,-8.548 h -16.926"
             style="fill:none;stroke:#e17676;stroke-width:1;stroke-linecap:round;stroke-linejoin:round;stroke-miterlimit:10;stroke-dasharray:none;stroke-opacity:1"
             id="path522" /></g><g
           id="g524"
           transform="matrix(0.53064762,0,0,0.53064762,77.586495,436.89782)"><path
             d="M 0,0 H -6.281"
             style="fill:none;stroke:#e17676;stroke-width:1;stroke-linecap:round;stroke-linejoin:round;stroke-miterlimit:10;stroke-dasharray:none;stroke-opacity:1"
             id="path526" /></g><g
           id="g528"
           transform="matrix(0.53064762,0,0,0.53064762,35.801391,463.54365)"><path
             d="M 0,0 V -2.275 C 0,-4.37 -1.697,-6.067 -3.792,-6.067 h -1.954"
             style="fill:none;stroke:#c46767;stroke-width:1;stroke-linecap:round;stroke-linejoin:round;stroke-miterlimit:10;stroke-dasharray:none;stroke-opacity:1"
             id="path530" /></g><g
           id="g532"
           transform="matrix(0.53064762,0,0,0.53064762,66.063588,454.63355)"><path
             d="m 0,0 c 0,-1.215 -1.536,-2.2 -3.43,-2.2 -1.894,0 -3.429,0.985 -3.429,2.2 0,1.215 1.535,2.2 3.429,2.2 C -1.536,2.2 0,1.215 0,0"
             style="fill:#ffa8aa;fill-opacity:1;fill-rule:nonzero;stroke:none"
             id="path534" /></g><g
           id="g536"
           transform="matrix(0.53064762,0,0,0.53064762,40.04031,457.26297)"><path
             d="m 0,0 c 0,-1.17 -1.312,-2.118 -2.93,-2.118 -1.617,0 -2.929,0.948 -2.929,2.118 0,1.171 1.312,2.119 2.929,2.119 C -1.312,2.119 0,1.171 0,0"
             style="fill:#ffa8aa;fill-opacity:1;fill-rule:nonzero;stroke:none"
             id="path538" /></g><g
           id="g540"
           transform="matrix(0.53064762,0,0,0.53064762,-81.85083,355.57294)"><g
             id="g542" /><g
             id="g554"><g
               clip-path="url(#clipPath546-3)"
               opacity="0.100006"
               id="g552"><g
                 transform="translate(226.855,150.6455)"
                 id="g550"><path
                   d="m 0,0 c -1.036,0 -2.044,0.119 -3.012,0.343 -0.825,0.19 -1.674,-0.19 -2.057,-0.945 -0.006,-0.011 -0.012,-0.022 -0.017,-0.033 -0.544,-1.07 0.067,-2.361 1.237,-2.631 1.237,-0.285 2.525,-0.437 3.849,-0.437 h 0.497 c 1.013,0 1.834,0.821 1.834,1.834 v 0.035 C 2.331,-0.821 1.51,0 0.497,0 Z"
                   style="fill:#ffffff;fill-opacity:1;fill-rule:nonzero;stroke:none"
                   id="path548" /></g></g></g></g><g
           id="g556"
           transform="matrix(0.53064762,0,0,0.53064762,-81.85083,355.57294)"><g
             id="g558" /><g
             id="g570"><g
               clip-path="url(#clipPath562-7)"
               opacity="0.100006"
               id="g568"><g
                 transform="translate(209.6133,164.1846)"
                 id="g566"><path
                   d="m 0,0 v 0 c 0,-4.717 1.895,-8.991 4.964,-12.104 0.7,-0.709 1.838,-0.692 2.566,-0.011 0.012,0.011 0.025,0.022 0.037,0.034 0.762,0.71 0.724,1.897 -0.004,2.642 C 5.179,-7 3.703,-3.673 3.703,0 3.703,0.516 3.734,1.026 3.794,1.53 3.91,2.498 3.213,3.365 2.25,3.514 2.236,3.516 2.221,3.519 2.207,3.521 1.199,3.678 0.231,2.988 0.114,1.976 0.039,1.327 0,0.668 0,0"
                   style="fill:#ffffff;fill-opacity:1;fill-rule:nonzero;stroke:none"
                   id="path564" /></g></g></g></g><g
           id="g572"
           transform="matrix(0.53064762,0,0,0.53064762,-81.85083,355.57294)"><g
             id="g574" /><g
             id="g586"><g
               clip-path="url(#clipPath578-3)"
               opacity="0.100006"
               id="g584"><g
                 transform="translate(295.3545,189.4092)"
                 id="g582"><path
                   d="m 0,0 -0.023,-0.029 c -0.642,-0.821 -0.473,-2.046 0.397,-2.618 1.34,-0.879 2.49,-2.022 3.385,-3.351 0.621,-0.923 1.903,-1.073 2.737,-0.337 0.014,0.012 0.028,0.024 0.042,0.037 0.686,0.603 0.816,1.629 0.306,2.385 C 5.684,-2.197 4.193,-0.724 2.465,0.419 1.664,0.947 0.593,0.754 0,0"
                   style="fill:#ffffff;fill-opacity:1;fill-rule:nonzero;stroke:none"
                   id="path580" /></g></g></g></g><g
           id="g588"
           transform="matrix(0.53064762,0,0,0.53064762,-81.85083,355.57294)"><g
             id="g590" /><g
             id="g602"><g
               clip-path="url(#clipPath594-6)"
               opacity="0.100006"
               id="g600"><g
                 transform="translate(275.8047,196.1387)"
                 id="g598"><path
                   d="m 0,0 h -9.058 c -1.013,0 -1.835,0.821 -1.835,1.835 0,1.014 0.822,1.836 1.835,1.836 L 0,3.671 C 1.014,3.671 1.836,2.849 1.836,1.835 1.836,0.821 1.014,0 0,0"
                   style="fill:#ffffff;fill-opacity:1;fill-rule:nonzero;stroke:none"
                   id="path596" /></g></g></g></g><g
           id="g604"
           transform="matrix(0.53064762,0,0,0.53064762,-81.85083,355.57294)"><g
             id="g606" /><g
             id="g618"><g
               clip-path="url(#clipPath610-9)"
               opacity="0.100006"
               id="g616"><g
                 transform="translate(248.8345,146.8555)"
                 id="g614"><path
                   d="m 0,0 h -11.678 c -1.014,0 -1.836,0.821 -1.836,1.835 0,1.014 0.822,1.836 1.836,1.836 L 0,3.671 C 1.014,3.671 1.835,2.849 1.835,1.835 1.835,0.821 1.014,0 0,0"
                   style="fill:#ffffff;fill-opacity:1;fill-rule:nonzero;stroke:none"
                   id="path612" /></g></g></g></g><g
           id="g620"
           transform="matrix(0.53064762,0,0,0.53064762,-81.85083,355.57294)"><g
             id="g622" /><g
             id="g634"><g
               clip-path="url(#clipPath626-2)"
               opacity="0.100006"
               id="g632"><g
                 transform="translate(257.3975,146.8555)"
                 id="g630"><path
                   d="m 0,0 h -2.928 c -1.013,0 -1.836,0.821 -1.836,1.835 0,1.014 0.823,1.836 1.836,1.836 L 0,3.671 C 1.014,3.671 1.836,2.849 1.836,1.835 1.836,0.821 1.014,0 0,0"
                   style="fill:#ffffff;fill-opacity:1;fill-rule:nonzero;stroke:none"
                   id="path628" /></g></g></g></g></g></g></g></svg>
